# xmcd
#
# Track frame offsets: 
#        150
#        11115
#        24315
#        36671
#        46963
#        58553
#        72677
#        82986
#        95969
#        109770
#        123580
#        135475
#        148536
#        162407
#        175294
#        188913
#        200206
#        210603
#        223412
#        238397
#        249952
#        261507
#        273489
#        286376
#
# Disc length: 3957 seconds
#
# Revision: 0
# Processed by: cddbd v1.5.2PL0 Copyright (c) Steve Scherf et al.
# Submitted via: ExactAudioCopy v1.0b4
#
DISCID=880f7318
DTITLE=Ray Charles - Hallelujah I love her so
DYEAR=1900
DGENRE=
TTITLE0=Confession blues
TTITLE1=Alone in this city
TTITLE2=Rockin'chair blues
TTITLE3=Ain't that fine
TTITLE4=See see rider
TTITLE5=Someday
TTITLE6=I wonder who's kissing her now
TTITLE7=Baby won't you please come home
TTITLE8=Baby let me hold your hand
TTITLE9=Kissa me baby
TTITLE10=It should've been me
TTITLE11=Don't you know
TTITLE12=Come back baby
TTITLE13=I've got a woman
TTITLE14=A fool for you
TTITLE15=This little girl of mine
TTITLE16=Blackjack
TTITLE17=Greenbacks
TTITLE18=Drown in my own tears
TTITLE19=Hallelujah I love her so
TTITLE20=Lonely avenue
TTITLE21=Leave my woman alone
TTITLE22=Ain't that love
TTITLE23=Swanee river rock
EXTD=
EXTT0=
EXTT1=
EXTT2=
EXTT3=
EXTT4=
EXTT5=
EXTT6=
EXTT7=
EXTT8=
EXTT9=
EXTT10=
EXTT11=
EXTT12=
EXTT13=
EXTT14=
EXTT15=
EXTT16=
EXTT17=
EXTT18=
EXTT19=
EXTT20=
EXTT21=
EXTT22=
EXTT23=
PLAYORDER=
